<!-- icon666.com - MILLIONS vector ICONS FREE -->
<svg version="1.1" id="Capa_1" xmlns="http://www.w3.org/2000/svg" xmlns:xlink="http://www.w3.org/1999/xlink" x="0px"
	y="0px" width="24" height="24" viewBox="0 0 512 512" style="enable-background:new 0 0 512 512;" xml:space="preserve">
	<g>
		<path
			class="icon-svg-repaint"
			d="M432,336c0-54.52-24.711-105.094-67.797-138.75c-4.563-3.566-6.844-9.32-5.961-15.043l14.602-94.91 c2.133-13.855-1.883-27.906-11.008-38.547C352.703,38.105,339.422,32,325.398,32H186.602c-14.023,0-27.305,6.105-36.438,16.75 c-9.125,10.641-13.141,24.691-11.008,38.547l14.602,94.91c0.883,5.723-1.398,11.477-5.961,15.043C104.711,230.906,80,281.48,80,336 c0,57.5,27.883,110.977,74.828,144h202.344C404.117,446.977,432,393.5,432,336z M348.883,92.988l-10.328,65.445 c-0.75,4.734-3.586,8.891-7.719,11.313c-2.484,1.453-5.281,2.191-8.086,2.191c-1.875,0-3.758-0.328-5.563-0.996 c-39.156-14.523-83.219-14.523-122.375,0c-4.508,1.656-9.508,1.23-13.648-1.195c-4.133-2.422-6.969-6.578-7.719-11.313 l-10.328-65.441c-1.461-9.262,1.195-18.66,7.281-25.785C176.492,60.086,185.352,56,194.727,56h122.547 c9.375,0,18.234,4.086,24.328,11.207C347.688,74.332,350.344,83.73,348.883,92.988z"
			fill="#F69348">
			<!-- Тело гири -->
		</path>
		<path
			d="M362.117,512H149.883c-3.148,0-6.234-0.93-8.859-2.676C82.773,470.617,48,405.82,48,336 c0-61.27,26.391-118.313,72.742-157.957l-13.211-85.879c-3.555-23.094,3.133-46.512,18.344-64.25 C141.094,10.176,163.227,0,186.602,0h138.797c23.375,0,45.508,10.176,60.727,27.914c15.211,17.738,21.898,41.156,18.344,64.25 l-13.211,85.879C437.609,217.688,464,274.73,464,336c0,69.82-34.773,134.617-93.023,173.324 C368.352,511.07,365.266,512,362.117,512z M154.828,480h202.344C404.117,446.977,432,393.5,432,336 c0-54.52-24.711-105.094-67.797-138.75c-4.563-3.566-6.844-9.32-5.961-15.043l14.602-94.91 c2.133-13.855-1.883-27.906-11.008-38.547C352.703,38.105,339.422,32,325.398,32H186.602c-14.023,0-27.305,6.105-36.438,16.75 c-9.125,10.641-13.141,24.691-11.008,38.547l14.602,94.91c0.883,5.723-1.398,11.477-5.961,15.043C104.711,230.906,80,281.48,80,336 C80,393.5,107.883,446.977,154.828,480z M322.75,171.938c-1.875,0-3.758-0.328-5.563-0.996c-39.156-14.523-83.219-14.523-122.375,0 c-4.508,1.656-9.508,1.23-13.648-1.195c-4.133-2.422-6.969-6.578-7.719-11.313l-10.328-65.441 c-1.461-9.262,1.195-18.66,7.281-25.785C176.492,60.086,185.352,56,194.727,56h122.547c9.375,0,18.234,4.086,24.328,11.207 c6.086,7.125,8.742,16.523,7.281,25.781l-10.328,65.445c-0.75,4.734-3.586,8.891-7.719,11.313 C328.352,171.199,325.555,171.938,322.75,171.938z M256,128c18.313,0,36.352,2.367,53.852,7.051L317.273,88H194.727l7.422,47.051 C219.648,130.367,237.688,128,256,128z"
			fill="#000000">
			<!-- Обводка -->
		</path>
		<g>
			<path
				d="M142.828,312.008c-1.773,0-3.57-0.297-5.328-0.918c-8.336-2.945-12.703-12.086-9.758-20.418 c12.508-35.391,39.43-64.313,73.852-79.348c8.094-3.547,17.539,0.152,21.07,8.254c3.539,8.098-0.164,17.531-8.258,21.066 c-26.336,11.508-46.93,33.625-56.492,60.691C155.594,307.902,149.422,312.008,142.828,312.008z"
				fill="#FFFFFF">
				<!-- Солнечный блик 1 -->
			</path>
		</g>
		<g>
			<circle style="" cx="136" cy="336" r="16" fill="#FFFFFF">
				<!-- Солнечный блик 2 -->
			</circle>
		</g>
	</g>
</svg>