<!-- icon666.com - MILLIONS vector ICONS FREE --><svg  width="24" height="24" viewBox="0 0 64 64" xmlns="http://www.w3.org/2000/svg"><g id="Fill_1" data-name="Fill 1"><circle cx="32" cy="32" fill="#2583a5" r="28" style="fill: rgb(31, 131, 165);"></circle></g><g id="Highlight_1" data-name="Highlight 1"><path d="m32 57a24.8281 24.8281 0 0 1 -15.43-5.3271l35.1029-35.1036a25.0031 25.0031 0 0 1 -19.6729 40.4307z" fill="#055473" style="fill: rgb(31, 131, 165);"></path></g><g id="Fill_2" data-name="Fill 2"><path d="m36 45h-8v-9h-9v-8h9v-9h8v9h9v8h-9z" fill="#fff"></path></g><g id="Line"><path d="m28 40a1 1 0 0 0 -1 1v4a1 1 0 0 0 1 1h8a1 1 0 0 0 1-1v-8h8a1 1 0 0 0 1-1v-8a1 1 0 0 0 -1-1h-9a1 1 0 0 0 0 2h8v6h-8a1 1 0 0 0 -1 1v8h-6v-3a1 1 0 0 0 -1-1z" fill="#000000"></path><path d="m36 18h-8a1 1 0 0 0 -1 1v8h-8a1 1 0 0 0 -1 1v8a1 1 0 0 0 1 1h9a1 1 0 0 0 0-2h-8v-6h8a1 1 0 0 0 1-1v-8h6v3a1 1 0 0 0 2 0v-4a1 1 0 0 0 -1-1z" fill="#000000"></path><path d="m32 3a28.8319 28.8319 0 0 0 -20.2954 8.2861 1 1 0 1 0 1.3994 1.4278 27.0028 27.0028 0 0 1 42.04 33.1992 1 1 0 0 0 1.7128 1.0332 29.0061 29.0061 0 0 0 -24.8568-43.9463z" fill="#000000"></path><path d="m32 61a28.8319 28.8319 0 0 0 20.2954-8.2861 1 1 0 1 0 -1.3994-1.4278 27.0028 27.0028 0 0 1 -42.04-33.1992 1 1 0 0 0 -1.7128-1.0332 29.0061 29.0061 0 0 0 24.8568 43.9463z" fill="#000000"></path></g></svg>