<!-- icon666.com - MILLIONS vector ICONS FREE --><svg fill="none" xmlns="http://www.w3.org/2000/svg" width="20" height="20" viewBox="0 0 24 24"><g fill="rgb(0,0,0)"><path d="m6.44977 8.50008c-.06 0-.11999-.01002-.17999-.02002-.19-.05-.36001-.16996-.46001-.33996l-1.55999-2.56c-.38-.62-.50001-1.36002-.32001-2.08002.17-.71.61-1.32001 1.24-1.70001.62-.38 1.36001-.50001 2.08001-.32001.72.17 1.31999.60999 1.69999 1.23999l1.56003 2.56006c.22.35.1.80997-.25 1.02997l-3.42003 2.08002c-.12.07-.25.10998-.39.10998zm.14-5.59997c-.23 0-.45.05999-.64.17999-.28.17-.47999.44996-.55999.76996-.08001.33-.03001.66.13999.94l1.17 1.92004 2.14-1.30005-1.17-1.91998c-.17-.28-.45-.48-.77-.56-.11-.02-.21-.02996-.31-.02996z"/><path d="m11.4194 22.61c-.3 0-.6-.04-.89-.13-.88004-.26-1.59004-.8599-2.00004-1.7099l-2.05-4.18c-1.09-2.22-.31999-4.86 1.79001-6.15l3.16003-1.92003c2.11-1.28999 4.82-.76001 6.29 1.22999l2.77 3.73994c.56.76.77 1.67.6 2.56s-.71 1.6601-1.52 2.1501l-6.43 3.9099c-.54.33-1.13.5-1.72.5zm2.48-13.28994c-.58 0-1.16.15998-1.7.47998l-3.16005 1.91996c-1.45.88-1.96999 2.69-1.22999 4.21l2.05 4.18c.23004.46.61004.79 1.08004.93s.97.0601 1.4-.1999l6.43-3.9101c.44-.27.73-.6799.83-1.1599.09-.48-.02-.97-.33-1.38l-2.77-3.74c-.63-.87002-1.6-1.33004-2.6-1.33004z"/><path d="m7.68041 12.4299c-.06 0-.11999-.01-.17999-.02-.19-.05-.36001-.17-.46001-.34l-2.07998-3.41995c-.22-.35-.1-.81002.25-1.03002l5.11997-3.12c.35-.21.82-.1 1.03.25l2.08 3.41998c.1.17.14.37001.09.57001-.05.19-.17.36002-.34.46002l-5.11997 3.11996c-.12.08-.26002.11-.39002.11zm-1.04999-3.90995 1.29999 2.13995 3.83999-2.33996-1.3-2.14002z"/><path d="m15.9594 20.2699c-.25 0-.5-.1301-.64-.3601l-1.65-2.7099c-.22-.35-.1-.81.25-1.03.35-.21.82-.1 1.03.25l1.65 2.71c.22.35.1.8099-.25 1.0299-.12.07-.26.1101-.39.1101z"/><path d="m13.4008 21.8299c-.25 0-.5-.13-.64-.36l-1.65-2.71c-.22-.35-.1-.81.25-1.03.35-.21.82-.1 1.03.25l1.65 2.71c.22.35.1.81-.25 1.03-.12.07-.26.11-.39.11z"/><path d="m18.52 18.7101c-.25 0-.5-.1301-.64-.3601l-1.65-2.7099c-.22-.35-.1-.8101.25-1.0301.35-.21.82-.1 1.03.25l1.65 2.7101c.22.35.1.8099-.25 1.0299-.12.07-.25.1101-.39.1101z"/></g></svg>