<!-- icon666.com - MILLIONS vector ICONS FREE --><svg version="1.1" id="Layer_1" xmlns="http://www.w3.org/2000/svg" xmlns:xlink="http://www.w3.org/1999/xlink" x="0px" y="0px" width="24" height="24" viewBox="0 0 512 512" style="enable-background:new 0 0 512 512;" xml:space="preserve"><path style="fill: rgb(221, 240, 255);" d="M298.756,50.772v37.096c0,9.299,2.527,18.423,7.311,26.397l31.809,53.015 c7.974,13.29,12.186,28.497,12.186,43.996V478.33c0,14.168-11.485,25.653-25.653,25.653H187.591 c-14.168,0-25.653-11.485-25.653-25.653V211.276c0-15.499,4.212-30.705,12.186-43.996l31.809-53.015 c4.784-7.974,7.311-17.098,7.311-26.397V50.772" fill="#CDEBFF"></path><path style="fill: rgb(221, 240, 255);" d="M298.756,50.772h-85.511v37.096c0,9.299-2.527,18.423-7.311,26.397l-31.81,53.015 c-7.974,13.29-12.185,28.497-12.185,43.995V478.33c0,14.168,11.485,25.653,25.653,25.653h45.476 c-10.948,0-19.823-11.485-19.823-25.653V211.275c0-15.499,3.255-30.705,9.417-43.996l24.58-53.015 c3.696-7.974,5.65-17.098,5.65-26.397v-2.356c0-4.722,3.829-8.551,8.551-8.551h37.313V50.772z" fill="#B9DCF5"></path><path style="fill: rgb(37, 131, 165);" d="M298.756,50.772h-85.511c-4.722,0-8.551-3.829-8.551-8.551V16.568c0-4.722,3.829-8.551,8.551-8.551 h85.511c4.722,0,8.551,3.829,8.551,8.551v25.653C307.307,46.944,303.478,50.772,298.756,50.772z" fill="#00C3FF"></path><path style="fill: rgb(37, 131, 165);" d="M247.449,42.221V16.568c0-4.722,3.829-8.551,8.551-8.551h-42.756c-4.722,0-8.551,3.829-8.551,8.551 v25.653c0,4.722,3.829,8.551,8.551,8.551H256C251.278,50.772,247.449,46.944,247.449,42.221z" fill="#00AAF0"></path><path style="" d="M187.591,503.983h136.818c14.168,0,25.653-11.485,25.653-25.653V211.276 c0-15.499-4.211-30.706-12.185-43.996l-0.496-0.826c-3.974,2.052-8.083,4.034-15.993,4.034c-16.398,0-16.398-8.551-32.797-8.551 c-16.371,0-16.371,8.551-32.743,8.551c-16.368,0-16.368-8.551-32.736-8.551c-16.366,0-16.366,8.551-32.73,8.551 c-7.794,0-11.885-1.938-15.806-3.965l-0.454,0.757c-7.974,13.29-12.185,28.497-12.185,43.996V478.33 C161.937,492.498,173.423,503.983,187.591,503.983z" fill="#FFFFFF"></path><path style="fill: rgb(255, 255, 255);" d="M187.591,503.983h45.476c-10.948,0-19.823-11.485-19.823-25.653V211.275 c0-15.499,3.255-30.705,9.417-43.996l2.416-5.211c-0.676-0.033-1.225-0.133-1.964-0.133c-16.366,0-16.366,8.551-32.73,8.551 c-7.794,0-11.885-1.938-15.806-3.965l-0.454,0.757c-7.974,13.29-12.185,28.497-12.185,43.995V478.33 C161.937,492.498,173.423,503.983,187.591,503.983z" fill="#E6F5FF"></path><path style="fill: rgb(37, 131, 165);" d="M307.307,401.37H204.693c-4.722,0-8.551-3.829-8.551-8.551V273.102c0-4.722,3.829-8.551,8.551-8.551 h102.614c4.722,0,8.551,3.829,8.551,8.551v119.716C315.858,397.541,312.029,401.37,307.307,401.37z" fill="#00AAF0"></path><path style="fill: rgb(37, 131, 165);" d="M281.653,358.614h-51.307c-4.722,0-8.551-3.829-8.551-8.551v-34.205c0-4.722,3.829-8.551,8.551-8.551 h51.307c4.722,0,8.551,3.829,8.551,8.551v34.205C290.205,354.785,286.376,358.614,281.653,358.614z" fill="#00C3FF"></path><path d="M344.751,163.156l-31.809-53.016c-4.036-6.725-6.17-14.427-6.17-22.271V56.71c5.093-2.829,8.551-8.26,8.551-14.489V16.568 C315.324,7.432,307.892,0,298.756,0h-85.511c-9.136,0-16.568,7.432-16.568,16.568v25.653c0,6.228,3.458,11.659,8.551,14.489v31.158 c0,7.845-2.134,15.546-6.169,22.273l-31.809,53.015c-8.72,14.533-13.329,31.172-13.329,48.121V478.33 c0,18.566,15.105,33.67,33.67,33.67h136.818c18.566,0,33.67-15.105,33.67-33.67V211.276 C358.079,194.328,353.47,177.689,344.751,163.156z M212.71,16.568c0-0.295,0.239-0.534,0.534-0.534h85.511 c0.295,0,0.534,0.239,0.534,0.534v25.653c0,0.295-0.239,0.534-0.534,0.534h-85.511c-0.295,0-0.534-0.239-0.534-0.534V16.568z M212.807,118.391c5.53-9.218,8.454-19.772,8.454-30.522V58.789h69.478v29.079c0,10.75,2.923,21.304,8.454,30.521l25.519,42.53 c-2.137,0.969-4.391,1.551-8.084,1.551c-5.493,0-7.786-1.291-11.257-3.244c-4.2-2.364-9.426-5.307-19.122-5.307 c-9.687,0-14.908,2.944-19.103,5.309c-3.462,1.952-5.75,3.242-11.228,3.242c-5.476,0-7.762-1.29-11.223-3.241 c-4.193-2.365-9.414-5.309-19.099-5.309c-9.685,0-14.904,2.944-19.098,5.31c-3.46,1.952-5.745,3.241-11.22,3.241 c-3.649,0-5.886-0.573-8.002-1.53L212.807,118.391z M342.046,478.33c0,9.725-7.912,17.637-17.637,17.637H187.591 c-9.725,0-17.637-7.912-17.637-17.637V211.276c0-12.744,3.155-25.273,9.137-36.482c3.766,1.912,8.611,3.711,16.186,3.711 c9.685,0,14.904-2.944,19.098-5.31c3.46-1.952,5.745-3.241,11.22-3.241c5.476,0,7.762,1.29,11.223,3.242 c4.194,2.365,9.415,5.309,19.1,5.309c9.687,0,14.908-2.944,19.102-5.309c3.462-1.952,5.75-3.242,11.228-3.242 c5.494,0,7.787,1.291,11.258,3.245c4.2,2.364,9.426,5.306,19.122,5.306c7.624,0,12.489-1.815,16.269-3.735 c5.99,11.215,9.15,23.753,9.15,36.505V478.33H342.046z" fill="#000000"></path><path d="M247.449,92.994h17.102c4.427,0,8.017-3.589,8.017-8.017c0-4.427-3.589-8.017-8.017-8.017h-17.102 c-4.427,0-8.017,3.589-8.017,8.017C239.432,89.404,243.021,92.994,247.449,92.994z" fill="#000000"></path><path d="M204.693,409.386h102.614c9.136,0,16.568-7.432,16.568-16.568V273.102c0-9.136-7.432-16.568-16.568-16.568H204.693 c-9.136,0-16.568,7.432-16.568,16.568v119.716C188.125,401.954,195.557,409.386,204.693,409.386z M204.159,273.102 c0-0.295,0.239-0.534,0.534-0.534h102.614c0.295,0,0.534,0.239,0.534,0.534v119.716c0,0.295-0.239,0.534-0.534,0.534H204.693 c-0.295,0-0.534-0.239-0.534-0.534V273.102z" fill="#000000"></path><path d="M315.953,461.762h-17.104c-4.427,0-8.017,3.589-8.017,8.017s3.589,8.017,8.017,8.017h17.104 c4.427,0,8.017-3.589,8.017-8.017S320.381,461.762,315.953,461.762z" fill="#000000"></path><path d="M264.646,461.762h-68.409c-4.427,0-8.017,3.589-8.017,8.017s3.589,8.017,8.017,8.017h68.409 c4.427,0,8.017-3.589,8.017-8.017S269.074,461.762,264.646,461.762z" fill="#000000"></path></svg>