<svg fill="none" viewBox="3.5 3.5 24 24" width="24" height="24"
  xmlns="http://www.w3.org/2000/svg">
  <path clip-rule="evenodd"
    class="icon-svg-repaint"
    d="m8.92893 8.92893c.39053-.39052 1.02369-.39052 1.41417 0l5.6569 5.65687 5.6569-5.65687c.3905-.39052 1.0236-.39052 1.4142 0 .3905.39053.3905 1.02369 0 1.41417l-5.6569 5.6569 5.6569 5.6569c.3905.3905.3905 1.0236 0 1.4142-.3906.3905-1.0237.3905-1.4142 0l-5.6569-5.6569-5.6569 5.6569c-.39048.3905-1.02364.3905-1.41417 0-.39052-.3906-.39052-1.0237 0-1.4142l5.65687-5.6569-5.65687-5.6569c-.39052-.39048-.39052-1.02364 0-1.41417z"
    fill="rgb(0,0,0)" fill-rule="evenodd"
    stroke="black" stroke-width="0.3" />
</svg>