<svg width="24" height="24" viewBox="-132 0 506 506" xmlns="http://www.w3.org/2000/svg">
  <path
    d="m234.160156 272.878906v182.332032c0 23.449218-24 42.46875-53.601562 42.46875h-119.078125c-29.601563 0-53.601563-19.019532-53.601563-42.46875v-182.332032c0-2.550781.0625-5.089844.171875-7.640625 27.769531.292969 27.980469 19.589844 56.167969 19.589844 28.402344 0 28.402344-19.589844 56.800781-19.589844 28.398438 0 28.398438 19.589844 56.800781 19.589844 28.1875 0 28.398438-19.296875 56.167969-19.589844.109375 2.550781.171875 5.089844.171875 7.640625zm0 0"
    fill="#ffffff">
    <!-- Жидкость в бутылке -->
  </path>

  <path
    d="m214.988281 194.011719c11.308594 22.128906 17.785157 46.40625 19 71.226562-27.769531.292969-27.980469 19.589844-56.167969 19.589844-28.402343 0-28.402343-19.589844-56.800781-19.589844-28.398437 0-28.398437 19.589844-56.800781 19.589844-28.1875 0-28.398438-19.296875-56.167969-19.589844 1.214844-24.820312 7.691407-49.097656 19-71.226562l15.257813-30.242188c12.507812-24.414062 19.074218-51.4375 19.171875-78.871093v-28.679688h119.078125v28.679688c.097656 27.433593 6.664062 54.457031 19.171875 78.871093zm0 0"
    fill="#ffffff">
    <!-- Пустой объём внутри бутылки -->
  </path>

  <path class="icon-svg-repaint"
    d="m193.621094 19.320312v25.898438c0 6.078125-4.925782 11-11 11h-123.203125c-6.074219 0-11-4.921875-11-11v-25.898438c0-6.074218 4.925781-11 11-11h123.203125c6.074218 0 11 4.925782 11 11zm0 0"
    fill="#2583A5">
    <!-- Крышка -->
  </path>

  <path
    d="m222.132812 190.40625-15.03125-30.242188c-11.898437-23.304687-18.09375-49.097656-18.082031-75.265624v-21.640626c7-2.5 13-9.636718 13-18.039062v-25.898438c-.175781-10.628906-8.769531-19.191406-19.398437-19.320312h-123.203125c-10.628907.128906-19.222657 8.691406-19.398438 19.320312v25.898438c0 8.402344 6 15.535156 13 18.039062v21.640626c.011719 26.167968-6.1875 51.960937-18.082031 75.265624l-15.144531 30.234376c-11.796875 23.148437-18.523438 48.546874-19.7226565 74.5-.1171875 2.71875-.0507813 5.40625-.0507813 7.988281v182.324219c0 27.828124 27.4921878 50.789062 61.4609378 50.789062h119.078125c33.96875 0 61.460937-22.960938 61.460937-50.789062v-182.332032c0-2.578125.011719-5.265625-.109375-8-1.222656-25.949218-7.964844-51.335937-19.777344-74.472656zm-37.113281-145.40625c0 1.65625-1.34375 3-3 3h-123c-1.65625 0-3-1.34375-3-3v-26c0-1.65625 1.34375-3 3-3h123c1.65625 0 3 1.34375 3 3zm-150.828125 152.613281 15.027344-30.234375c13.03125-25.542968 19.816406-53.808594 19.800781-82.480468v-20.898438h104v20.898438c-.015625 28.671874 6.769531 56.9375 19.800781 82.476562l15.144532 30.238281c9.59375 18.816407 15.546875 39.277344 17.550781 60.300781-10.964844 1.699219-17.730469 6.347657-23.800781 10.539063-6.789063 4.683594-12.164063 8.382813-23.875 8.382813-11.710938 0-17.078125-3.703126-23.863282-8.382813-7.625-5.253906-16.257812-11.214844-32.957031-11.214844s-25.328125 5.957031-32.945312 11.210938c-6.789063 4.683593-12.148438 8.378906-23.859375 8.378906-11.707032 0-17.070313-3.699219-23.859375-8.378906-6.066407-4.1875-12.792969-8.820313-23.773438-10.53125 2.023438-21.03125 7.996094-41.488281 17.609375-60.304688zm146.367188 292.386719h-119.078125c-25.144531 0-45.460938-15.78125-45.460938-34.789062v-181.164063c6 1.332031 10.417969 4.1875 15.324219 7.570313 7.617188 5.257812 16.21875 11.210937 32.910156 11.210937 16.695313 0 25.308594-5.953125 32.925782-11.207031 6.785156-4.683594 12.140624-8.382813 23.847656-8.382813 11.710937 0 17.066406 3.703125 23.855468 8.382813 7.617188 5.253906 16.246094 11.207031 32.9375 11.207031 16.691407 0 25.257813-5.953125 32.875-11.210937 4.914063-3.386719 9.324219-6.25 15.324219-7.578126v181.171876c0 19.007812-20.316406 34.789062-45.460937 34.789062zm0 0"
    fill="#000000" stroke="#000000" stroke-width="5">
    <!-- Обводка -->
  </path>
</svg>